<svg width="25" height="25" viewBox="0 0 25 25" fill="none" xmlns="http://www.w3.org/2000/svg">
<g clip-path="url(#clip0)">
<path d="M19.6335 4.11709L4.11328 19.611L5.24367 20.7433L20.7639 5.2494L19.6335 4.11709Z" fill="#333333"/>
<path d="M5.24367 4.11781L4.11328 5.25012L19.6335 20.744L20.7639 19.6117L5.24367 4.11781Z" fill="#333333"/>
<path d="M14.9388 15.1033C12.7346 17.3073 11.6791 20.347 12.0433 23.4425L13.6321 23.2556C13.3255 20.6497 14.2143 18.0905 16.07 16.2345C17.994 14.3105 20.7375 13.4177 23.4041 13.8454L23.6577 12.2657C20.4847 11.7564 17.2247 12.8174 14.9388 15.1033Z" fill="#333333"/>
<path d="M12.0629 1.42578L10.4672 1.541C10.6442 3.99622 9.73755 6.41272 7.97542 8.17489C6.24264 9.93087 3.89411 10.8125 1.36741 10.6581L1.26953 12.2552C1.49406 12.269 1.71672 12.2757 1.93858 12.2757C4.67913 12.2757 7.20658 11.2325 9.11059 9.30237C11.1976 7.21536 12.2736 4.34445 12.0629 1.42578Z" fill="#333333"/>
<path d="M12.4648 0.442871C5.84806 0.442871 0.464844 5.82609 0.464844 12.4429C0.464844 19.0597 5.84806 24.4429 12.4648 24.4429C19.0816 24.4429 24.4648 19.0597 24.4648 12.4429C24.4648 5.82609 19.0816 0.442871 12.4648 0.442871ZM12.4648 22.8429C6.73016 22.8429 2.06483 18.1776 2.06483 12.4429C2.06483 6.70818 6.73016 2.04286 12.4648 2.04286C18.1995 2.04286 22.8649 6.70818 22.8649 12.4429C22.8649 18.1776 18.1995 22.8429 12.4648 22.8429Z" fill="#333333"/>
</g>
<defs>
<clipPath id="clip0">
<rect width="24" height="24" fill="white" transform="translate(0.464844 0.442871)"/>
</clipPath>
</defs>
</svg>
