<svg width="25" height="25" viewBox="0 0 25 25" fill="none" xmlns="http://www.w3.org/2000/svg">
<g clip-path="url(#clip0)">
<path d="M23.9996 5.26649C23.9981 5.26649 23.9965 5.26649 23.995 5.26649H22.4179V4.72685C22.4264 4.51327 22.2883 4.32131 22.083 4.26165C20.9881 3.97473 19.8607 3.83087 18.7288 3.83366C16.868 3.83366 14.3326 4.25234 12.4579 6.15969C10.597 4.23374 8.04306 3.83366 6.18688 3.83366C5.05504 3.83087 3.92761 3.97473 2.83274 4.26165C2.62747 4.32131 2.48931 4.51327 2.4978 4.72685V5.26184H0.93005C0.67314 5.26184 0.464844 5.47014 0.464844 5.72705V20.5857C0.464844 20.8427 0.67314 21.0509 0.93005 21.0509C1.00995 21.0507 1.08845 21.0299 1.158 20.9905C1.20452 20.9672 5.85659 18.4225 12.3509 20.0601H12.4206H12.4625C12.4996 20.0645 12.5371 20.0645 12.5742 20.0601C19.0871 18.4086 23.7391 20.9486 23.767 20.9905C23.911 21.0736 24.0883 21.0736 24.2322 20.9905C24.3753 20.9079 24.4639 20.7556 24.4648 20.5904V5.7317C24.4648 5.47479 24.2566 5.26649 23.9996 5.26649ZM1.39526 19.8461V6.19691H2.5071V17.8643C2.50419 18.1212 2.7101 18.3318 2.96701 18.3347C2.99214 18.335 3.01726 18.3333 3.04209 18.3295C4.00448 18.1825 4.97613 18.1048 5.94963 18.0969C7.29814 18.0735 8.64102 18.2763 9.92249 18.697C7.02862 18.3471 4.09328 18.7426 1.39526 19.8461ZM5.94963 17.1711C5.10348 17.173 4.25831 17.2274 3.4189 17.3339V5.09437C4.32466 4.89258 5.24961 4.7896 6.17758 4.78733C7.91745 4.78733 10.3179 5.18741 11.9834 7.06684L11.9973 18.6551C11.0297 18.0225 9.14094 17.1711 5.94963 17.1711ZM12.9277 7.06684C14.5932 5.20602 16.9936 4.78733 18.7335 4.78733C19.6614 4.79006 20.5864 4.89299 21.4922 5.09437V17.3339C20.6575 17.2264 19.817 17.1705 18.9754 17.1665C15.8027 17.1665 13.9093 18.0178 12.9277 18.6505V7.06684ZM23.5298 19.8461C20.826 18.7396 17.8839 18.344 14.9839 18.697C16.2715 18.2748 17.6207 18.0719 18.9754 18.0969C19.955 18.1024 20.9329 18.1785 21.9016 18.3248C22.1556 18.3634 22.3928 18.1887 22.4313 17.9347C22.4351 17.9099 22.4368 17.8848 22.4365 17.8596V6.19691H23.5484L23.5298 19.8461Z" fill="#333333"/>
</g>
<defs>
<clipPath id="clip0">
<rect width="24" height="24" fill="white" transform="translate(0.464844 0.442871)"/>
</clipPath>
</defs>
</svg>
