<svg width="25" height="25" viewBox="0 0 25 25" fill="none" xmlns="http://www.w3.org/2000/svg">
<g clip-path="url(#clip0)">
<path d="M24.452 15.4628C24.3922 14.0877 24.153 12.5631 23.7943 11.1283C23.4356 9.75319 22.9872 8.46779 22.4491 7.48132C20.3566 3.80447 18.0847 4.37244 15.3645 5.08987C14.4976 5.29913 13.5709 5.53827 12.6143 5.62795H12.3154C11.3588 5.53827 10.4321 5.29913 9.56523 5.08987C6.84496 4.40234 4.57309 3.80447 2.48058 7.51121C1.9425 8.49768 1.46421 9.78308 1.13539 11.1582C0.776674 12.593 0.53753 14.1176 0.477744 15.4927C0.417957 17.0172 0.567423 18.1232 0.896246 18.9005C1.22507 19.6179 1.70336 20.0663 2.33111 20.2456C2.89908 20.3951 3.55673 20.3353 4.24427 20.0364C5.4101 19.5581 6.75528 18.5417 8.07058 17.3161C8.99726 16.4193 10.7311 15.9709 12.4649 15.9709C14.1986 15.9709 15.9324 16.4193 16.8591 17.3161C18.1744 18.5417 19.5196 19.5581 20.6854 20.0364C21.373 20.3054 22.0306 20.3951 22.5986 20.2456C23.1965 20.0663 23.7046 19.6478 24.0335 18.8706C24.3623 18.1232 24.5117 17.0172 24.452 15.4628ZM23.0171 18.4521C22.8377 18.8706 22.5986 19.1097 22.2997 19.1994C21.9708 19.2891 21.5523 19.2293 21.074 19.0499C20.0278 18.6314 18.8022 17.7047 17.6065 16.5688C16.4705 15.4329 14.4677 14.8649 12.4649 14.8649C10.462 14.8649 8.45918 15.4329 7.29336 16.509C6.06774 17.645 4.84213 18.6015 3.82576 18.9901C3.34748 19.1695 2.92897 19.2592 2.60015 19.1396C2.30122 19.0499 2.06207 18.8108 1.88272 18.3923C1.64357 17.8243 1.524 16.8976 1.58379 15.5225C1.64357 14.2371 1.85282 12.7724 2.21154 11.3973C2.54036 10.1119 2.95887 8.91618 3.46705 8.01939C5.11116 5.05998 7.02432 5.53827 9.29619 6.13613C10.2229 6.37528 11.1795 6.61442 12.2257 6.7041C12.2556 6.7041 12.2556 6.7041 12.2855 6.7041H12.6143C12.6442 6.7041 12.6442 6.7041 12.6741 6.7041C13.7503 6.61442 14.7068 6.37528 15.6335 6.13613C17.9054 5.56816 19.8185 5.05998 21.4627 8.01939C21.9708 8.91618 22.3893 10.082 22.7182 11.3973C23.047 12.7724 23.2861 14.2073 23.3459 15.5225C23.4057 16.8976 23.2861 17.8243 23.0171 18.4521Z" fill="#333333"/>
<path d="M9.71461 9.63402C9.41568 9.36498 9.05696 9.15573 8.63846 9.12583C8.60856 8.73723 8.42921 8.34862 8.16017 8.07958L8.13028 8.04969C7.80145 7.72086 7.38295 7.5415 6.90466 7.5415C6.42637 7.5415 5.97798 7.75075 5.67905 8.04969C5.41001 8.31872 5.20076 8.70733 5.17086 9.12583C4.75236 9.15573 4.39365 9.33509 4.09472 9.60412L4.06482 9.63402C3.736 9.96284 3.55664 10.3813 3.55664 10.8596C3.55664 11.3379 3.76589 11.7863 4.06482 12.0852C4.36375 12.3842 4.72247 12.5635 5.17086 12.5934C5.20076 13.0119 5.38012 13.4005 5.67905 13.6696C6.00787 13.9984 6.42637 14.1778 6.90466 14.1778C7.38295 14.1778 7.83135 13.9685 8.13028 13.6696C8.39931 13.3706 8.60856 13.0119 8.63846 12.5934C9.05696 12.5635 9.44557 12.3842 9.71461 12.0852C10.0434 11.7564 10.2228 11.3379 10.2228 10.8596C10.2228 10.3813 10.0135 9.93295 9.71461 9.63402ZM8.96728 11.308C8.84771 11.4276 8.69824 11.4874 8.51889 11.4874H8.10038C7.80145 11.4874 7.53242 11.7265 7.53242 12.0554V12.444C7.53242 12.6233 7.47263 12.7728 7.35306 12.8924C7.23348 13.0119 7.08402 13.0717 6.90466 13.0717C6.7253 13.0717 6.57584 13.0119 6.45627 12.8924C6.33669 12.7728 6.27691 12.6233 6.27691 12.444V12.0255C6.27691 11.7265 6.03776 11.4575 5.70894 11.4575H5.29044C5.11108 11.4575 4.96161 11.3977 4.84204 11.2781C4.75236 11.1885 4.66268 11.039 4.66268 10.8596C4.66268 10.6803 4.72247 10.5308 4.84204 10.4112C4.84204 10.4112 4.84204 10.4112 4.87193 10.3813C4.99151 10.2917 5.14097 10.2319 5.29044 10.2319H5.70894C6.00787 10.2319 6.27691 9.99273 6.27691 9.66391V9.24541C6.27691 9.06605 6.33669 8.91658 6.45627 8.79701C6.57584 8.67744 6.7253 8.61765 6.90466 8.61765C7.08402 8.61765 7.23348 8.67744 7.35306 8.79701C7.35306 8.79701 7.35306 8.79701 7.38295 8.8269C7.47263 8.94648 7.53242 9.09594 7.53242 9.24541V9.66391C7.53242 9.96284 7.77156 10.2319 8.10038 10.2319H8.51889C8.69824 10.2319 8.84771 10.2917 8.96728 10.4112C9.08685 10.5308 9.14664 10.6803 9.14664 10.8596C9.14664 11.039 9.08685 11.1885 8.96728 11.308Z" fill="#333333"/>
<path d="M17.6654 9.78355C18.2432 9.78355 18.7117 9.31513 18.7117 8.7373C18.7117 8.15947 18.2432 7.69104 17.6654 7.69104C17.0876 7.69104 16.6191 8.15947 16.6191 8.7373C16.6191 9.31513 17.0876 9.78355 17.6654 9.78355Z" fill="#333333"/>
<path d="M17.6654 14.0276C18.2432 14.0276 18.7117 13.5591 18.7117 12.9813C18.7117 12.4035 18.2432 11.9351 17.6654 11.9351C17.0876 11.9351 16.6191 12.4035 16.6191 12.9813C16.6191 13.5591 17.0876 14.0276 17.6654 14.0276Z" fill="#333333"/>
<path d="M15.5443 11.9055C16.1221 11.9055 16.5906 11.4371 16.5906 10.8592C16.5906 10.2814 16.1221 9.81299 15.5443 9.81299C14.9665 9.81299 14.498 10.2814 14.498 10.8592C14.498 11.4371 14.9665 11.9055 15.5443 11.9055Z" fill="#333333"/>
<path d="M19.7884 11.9055C20.3663 11.9055 20.8347 11.4371 20.8347 10.8592C20.8347 10.2814 20.3663 9.81299 19.7884 9.81299C19.2106 9.81299 18.7422 10.2814 18.7422 10.8592C18.7422 11.4371 19.2106 11.9055 19.7884 11.9055Z" fill="#333333"/>
</g>
<defs>
<clipPath id="clip0">
<rect width="24" height="24" fill="white" transform="translate(0.464844 0.442871)"/>
</clipPath>
</defs>
</svg>
