<svg width="25" height="25" viewBox="0 0 25 25" fill="none" xmlns="http://www.w3.org/2000/svg">
<g clip-path="url(#clip0)">
<path d="M13.6058 6.72168L16.8841 3.35475C16.939 3.2965 16.9716 3.22071 16.9761 3.14076C16.9805 3.06081 16.9566 2.98186 16.9085 2.91787L15.0335 0.566434C15.0022 0.528485 14.9632 0.497778 14.9189 0.476441C14.8746 0.455105 14.8263 0.44365 14.7771 0.442871H10.1523C10.1031 0.44365 10.0548 0.455105 10.0105 0.476441C9.96625 0.497778 9.92716 0.528485 9.89595 0.566434L8.02095 2.91787C7.9729 2.98187 7.94901 3.06079 7.9535 3.1407C7.958 3.2206 7.99059 3.29635 8.04551 3.35456L11.3236 6.72168C9.08123 7.01166 7.03336 8.14436 5.59599 9.88967C4.15861 11.635 3.43952 13.862 3.58481 16.1184C3.7301 18.3747 4.72886 20.4911 6.37821 22.0377C8.02755 23.5842 10.2038 24.4449 12.4648 24.4449C14.7258 24.4449 16.902 23.5842 18.5514 22.0377C20.2007 20.4911 21.1995 18.3747 21.3448 16.1184C21.4901 13.862 20.771 11.635 19.3336 9.88967C17.8962 8.14436 15.8484 7.01166 13.606 6.72168H13.6058ZM10.1772 1.26506L11.6811 2.7945H8.95845L10.1772 1.26506ZM15.971 2.7945H13.2475L14.7522 1.26506L15.971 2.7945ZM13.3396 3.45075L12.4647 5.97281L11.5898 3.45075H13.3396ZM14.0333 3.45075H15.874L13.0156 6.38662L14.0333 3.45075ZM12.4647 2.65537L10.9351 1.09912H13.9943L12.4647 2.65537ZM10.8953 3.4515L11.9138 6.38662L9.05464 3.45075L10.8953 3.4515ZM12.4647 23.7866C10.8346 23.7866 9.24103 23.3032 7.88562 22.3976C6.53021 21.4919 5.4738 20.2047 4.84997 18.6986C4.22614 17.1926 4.06292 15.5354 4.38095 13.9365C4.69897 12.3377 5.48396 10.8691 6.63664 9.71643C7.78932 8.56375 9.25793 7.77877 10.8567 7.46074C12.4556 7.14272 14.1128 7.30594 15.6188 7.92977C17.1249 8.55359 18.4121 9.61001 19.3178 10.9654C20.2234 12.3208 20.7068 13.9144 20.7068 15.5445C20.7043 17.7297 19.8352 19.8247 18.29 21.3698C16.7449 22.915 14.6499 23.7841 12.4647 23.7866Z" fill="#333333"/>
<path d="M12.4647 8.0979C10.9918 8.09794 9.55195 8.53474 8.32727 9.35308C7.1026 10.1714 6.14808 11.3345 5.58444 12.6953C5.02079 14.0561 4.87333 15.5535 5.16069 16.9982C5.44805 18.4428 6.15733 19.7697 7.19885 20.8113C8.24036 21.8528 9.56733 22.5621 11.0119 22.8494C12.4566 23.1368 13.954 22.9893 15.3148 22.4257C16.6756 21.862 17.8387 20.9075 18.657 19.6828C19.4754 18.4582 19.9122 17.0183 19.9122 15.5454C19.91 13.5709 19.1246 11.6779 17.7284 10.2817C16.3322 8.8855 14.4392 8.10013 12.4647 8.0979ZM12.4647 22.3363C11.1216 22.3362 9.80861 21.9379 8.69185 21.1917C7.57509 20.4454 6.70469 19.3848 6.19072 18.1439C5.67675 16.903 5.54229 15.5376 5.80434 14.2202C6.0664 12.9029 6.7132 11.6929 7.66295 10.7431C8.61271 9.79341 9.82276 9.14664 11.1401 8.88463C12.4574 8.62261 13.8229 8.7571 15.0638 9.27111C16.3047 9.78511 17.3653 10.6555 18.1115 11.7723C18.8577 12.8891 19.256 14.2021 19.256 15.5452C19.254 17.3458 18.5378 19.072 17.2647 20.3452C15.9915 21.6183 14.2652 22.3345 12.4647 22.3365V22.3363Z" fill="#333333"/>
</g>
<defs>
<clipPath id="clip0">
<rect width="24" height="24" fill="white" transform="translate(0.464844 0.442871)"/>
</clipPath>
</defs>
</svg>
