<svg width="21" height="20" viewBox="0 0 21 20" fill="none" xmlns="http://www.w3.org/2000/svg">
<path d="M12.2326 11.7678C12.7015 11.2989 12.9648 10.663 12.9648 10C12.9648 9.33696 12.7015 8.70107 12.2326 8.23223C11.7638 7.76339 11.1279 7.5 10.4648 7.5C9.8018 7.5 9.16592 7.76339 8.69708 8.23223C8.22824 8.70107 7.96484 9.33696 7.96484 10C7.96484 10.663 8.22824 11.2989 8.69708 11.7678C9.16592 12.2366 9.8018 12.5 10.4648 12.5C11.1279 12.5 11.7638 12.2366 12.2326 11.7678Z" stroke="white" stroke-linecap="round" stroke-linejoin="round"/>
<path d="M2.51367 9.99984C3.57534 6.619 6.73451 4.1665 10.4653 4.1665C14.197 4.1665 17.3553 6.619 18.417 9.99984C17.3553 13.3807 14.197 15.8332 10.4653 15.8332C6.73451 15.8332 3.57534 13.3807 2.51367 9.99984Z" stroke="white" stroke-linecap="round" stroke-linejoin="round"/>
</svg>
