<svg width="21" height="20" viewBox="0 0 21 20" fill="none" xmlns="http://www.w3.org/2000/svg">
<path d="M12.2326 11.7678C12.7015 11.2989 12.9648 10.663 12.9648 10C12.9648 9.33696 12.7015 8.70107 12.2326 8.23223C11.7638 7.76339 11.1279 7.5 10.4648 7.5C9.8018 7.5 9.16592 7.76339 8.69708 8.23223C8.22824 8.70107 7.96484 9.33696 7.96484 10C7.96484 10.663 8.22824 11.2989 8.69708 11.7678C9.16592 12.2366 9.8018 12.5 10.4648 12.5C11.1279 12.5 11.7638 12.2366 12.2326 11.7678Z" stroke="#8F8F8F" stroke-linecap="round" stroke-linejoin="round"/>
<path d="M2.51367 10.0001C3.57534 6.61925 6.73451 4.16675 10.4653 4.16675C14.197 4.16675 17.3553 6.61925 18.417 10.0001C17.3553 13.3809 14.197 15.8334 10.4653 15.8334C6.73451 15.8334 3.57534 13.3809 2.51367 10.0001Z" stroke="#8F8F8F" stroke-linecap="round" stroke-linejoin="round"/>
</svg>
