<svg width="25" height="23" viewBox="0 0 25 23" fill="none" xmlns="http://www.w3.org/2000/svg">
<path d="M24.3353 6.39098C24.3298 6.38515 24.3241 6.37944 24.3183 6.37391L19.364 1.97067C19.3188 1.92946 19.2661 1.8975 19.2086 1.87648L15.6248 0.59554C15.3803 0.506769 15.1102 0.633038 15.0214 0.877512C15.0054 0.921603 14.9961 0.967814 14.9938 1.01467C14.9938 1.11828 14.8383 3.50592 12.4507 3.54359C10.0489 3.50592 9.89824 1.11828 9.89353 1.01467C9.87964 0.754951 9.65783 0.555687 9.39811 0.56958C9.35349 0.571993 9.3094 0.580706 9.26719 0.59554L5.68809 1.89061C5.63064 1.91163 5.57789 1.94359 5.53268 1.9848L0.611416 6.37391C0.422866 6.55304 0.415213 6.85114 0.594345 7.03969C0.599878 7.04552 0.605588 7.05123 0.611416 7.05676L4.52959 11.0173V21.8488C4.52959 22.1089 4.74045 22.3197 5.00052 22.3197H19.9291C20.1892 22.3197 20.4001 22.1089 20.4001 21.8488V11.0173L24.3183 7.05676C24.5068 6.87763 24.5145 6.57959 24.3353 6.39098ZM20.386 9.67516V7.49002C20.386 7.22995 20.1751 7.01909 19.915 7.01909C19.6549 7.01909 19.4441 7.22995 19.4441 7.49002V21.3543H5.45262V7.49002C5.45262 7.22995 5.24176 7.01909 4.98169 7.01909C4.72161 7.01909 4.51075 7.22995 4.51075 7.49002V9.67987L1.61451 6.74595L6.0978 2.73358L9.04585 1.66927C9.41106 3.55101 11.2326 4.78044 13.1143 4.41523C14.504 4.1455 15.5905 3.05894 15.8603 1.66927L18.8083 2.73358L23.2775 6.74595L20.386 9.67516Z" fill="#333333"/>
</svg>
