<svg width="21" height="25" viewBox="0 0 21 25" fill="none" xmlns="http://www.w3.org/2000/svg">
<path d="M18.4336 24.4429H2.49609C1.33298 24.4429 0.386719 23.4966 0.386719 22.3335V2.55225C0.386719 1.38914 1.33298 0.442871 2.49609 0.442871H18.4336C19.5967 0.442871 20.543 1.38918 20.543 2.55225V22.3335C20.543 23.4966 19.5967 24.4429 18.4336 24.4429ZM2.49609 1.84912C2.10839 1.84912 1.79297 2.16454 1.79297 2.55225V22.3335C1.79297 22.7212 2.10839 23.0366 2.49609 23.0366H18.4336C18.8213 23.0366 19.1367 22.7212 19.1367 22.3335V2.55225C19.1367 2.16454 18.8213 1.84912 18.4336 1.84912H2.49609Z" fill="#333333"/>
<path d="M19.8398 7.146H1.08984C0.701531 7.146 0.386719 6.83118 0.386719 6.44287C0.386719 6.05456 0.701531 5.73975 1.08984 5.73975H19.8398C20.2282 5.73975 20.543 6.05456 20.543 6.44287C20.543 6.83118 20.2282 7.146 19.8398 7.146Z" fill="#333333"/>
<path d="M6.33984 7.146C5.95153 7.146 5.63672 6.83118 5.63672 6.44287V1.146C5.63672 0.757684 5.95153 0.442871 6.33984 0.442871C6.72816 0.442871 7.04297 0.757684 7.04297 1.146V6.44287C7.04297 6.83118 6.72816 7.146 6.33984 7.146Z" fill="#333333"/>
<path d="M16.8398 4.521H16.0898C15.7015 4.521 15.3867 4.20618 15.3867 3.81787C15.3867 3.42956 15.7015 3.11475 16.0898 3.11475H16.8398C17.2282 3.11475 17.543 3.42956 17.543 3.81787C17.543 4.20618 17.2282 4.521 16.8398 4.521Z" fill="#333333"/>
<path d="M13.0898 4.521H12.3398C11.9515 4.521 11.6367 4.20618 11.6367 3.81787C11.6367 3.42956 11.9515 3.11475 12.3398 3.11475H13.0898C13.4782 3.11475 13.793 3.42956 13.793 3.81787C13.793 4.20618 13.4782 4.521 13.0898 4.521Z" fill="#333333"/>
<path d="M10.4648 21.396C6.97552 21.396 4.13672 18.5572 4.13672 15.0679C4.13672 11.5786 6.97552 8.73975 10.4648 8.73975C13.9542 8.73975 16.793 11.5786 16.793 15.0679C16.793 18.5572 13.9542 21.396 10.4648 21.396ZM10.4648 10.146C7.75092 10.146 5.54297 12.354 5.54297 15.0679C5.54297 17.7818 7.75092 19.9897 10.4648 19.9897C13.1788 19.9897 15.3867 17.7818 15.3867 15.0679C15.3867 12.3539 13.1788 10.146 10.4648 10.146Z" fill="#333333"/>
</svg>
