<svg width="25" height="25" viewBox="0 0 25 25" fill="none" xmlns="http://www.w3.org/2000/svg">
<g clip-path="url(#clip0)">
<path d="M12.4648 23.443C8.98584 23.443 5.81684 21.684 3.97984 18.738C3.96884 18.724 3.95884 18.71 3.95084 18.697C3.72384 18.332 3.51384 17.932 3.30884 17.478C2.74784 16.191 2.46484 14.836 2.46484 13.443C2.44984 13.38 1.96484 10.131 1.96484 8.44299C1.96484 3.61599 6.25584 3.02499 7.25784 2.95299C7.79284 2.47599 9.72884 0.942993 12.4648 0.942993C16.8248 0.942993 22.9648 3.26999 22.9648 8.44299C22.9648 10.1 22.4798 13.378 22.4598 13.516C22.4648 14.831 22.1828 16.19 21.6248 17.481C21.4018 17.972 21.1578 18.421 20.8948 18.826C20.8758 18.855 20.8538 18.883 20.8288 18.907C19.0488 21.719 15.9008 23.443 12.4648 23.443ZM4.78084 18.139C4.79184 18.153 4.80184 18.166 4.80984 18.18C6.46084 20.849 9.32184 22.443 12.4648 22.443C15.5568 22.443 18.3898 20.892 20.0428 18.295C20.0628 18.265 20.0848 18.235 20.1108 18.21C20.2908 17.919 20.5108 17.514 20.7098 17.076C21.2098 15.92 21.4648 14.694 21.4648 13.443C21.4748 13.337 21.9648 10.027 21.9648 8.44299C21.9648 3.95999 16.4098 1.94299 12.4648 1.94299C9.70384 1.94299 7.83684 3.77799 7.81884 3.79699C7.72484 3.88999 7.59784 3.94199 7.46584 3.94299C7.28184 3.94399 2.96484 4.01299 2.96484 8.44299C2.96484 10.057 3.45484 13.336 3.45984 13.369C3.46484 14.697 3.71984 15.919 4.22384 17.073C4.40084 17.469 4.58484 17.82 4.78084 18.139Z" fill="#333333"/>
<path d="M21.7531 15.9431C21.5361 15.9431 21.3361 15.8001 21.2731 15.5811L20.0881 11.4411C12.8541 11.3811 9.92414 9.57908 8.75814 8.32008C8.00314 10.2601 5.69214 11.1061 4.86814 11.3511L3.65814 15.5801C3.58214 15.8471 3.30414 16.0011 3.04014 15.9231C2.77514 15.8471 2.62114 15.5701 2.69714 15.3051L3.98514 10.8051C4.03414 10.6311 4.17514 10.4971 4.35114 10.4561C4.38814 10.4471 8.00014 9.56508 8.00014 7.00208C8.00014 6.74908 8.18914 6.53608 8.44014 6.50608C8.69214 6.46908 8.92514 6.63708 8.98614 6.88308C8.99414 6.91008 10.1241 10.4431 20.4651 10.4431C20.6881 10.4431 20.8841 10.5901 20.9451 10.8051L22.2331 15.3051C22.3091 15.5711 22.1551 15.8471 21.8901 15.9231C21.8451 15.9371 21.7981 15.9431 21.7531 15.9431Z" fill="#333333"/>
<path d="M21.945 16.4427C21.829 16.4427 21.712 16.4317 21.596 16.4217C21.321 16.3947 21.12 16.1497 21.147 15.8747C21.174 15.6007 21.415 15.4117 21.693 15.4257C21.777 15.4337 21.861 15.4427 21.945 15.4427C22.772 15.4427 23.445 14.7697 23.445 13.9427C23.445 13.1807 22.878 12.5397 22.126 12.4487C21.852 12.4167 21.656 12.1677 21.689 11.8927C21.722 11.6197 21.973 11.4167 22.245 11.4557C23.499 11.6057 24.445 12.6757 24.445 13.9417C24.445 15.3217 23.323 16.4427 21.945 16.4427Z" fill="#333333"/>
<path d="M2.96484 16.4432C1.58684 16.4432 0.464844 15.3222 0.464844 13.9432C0.464844 12.6652 1.42184 11.5952 2.68984 11.4562C2.97184 11.4322 3.21084 11.6242 3.24184 11.8982C3.27284 12.1722 3.07384 12.4192 2.79984 12.4502C2.05084 12.5322 1.46484 13.1882 1.46484 13.9432C1.46484 14.7702 2.13784 15.4432 2.96484 15.4432C3.04484 15.4432 3.11984 15.4362 3.18384 15.4232C3.45284 15.3612 3.71884 15.5422 3.77384 15.8122C3.82984 16.0832 3.65484 16.3462 3.38484 16.4022C3.25484 16.4292 3.11284 16.4432 2.96484 16.4432Z" fill="#333333"/>
<path d="M8.46484 15.4429C7.63784 15.4429 6.96484 14.7699 6.96484 13.9429C6.96484 13.1159 7.63784 12.4429 8.46484 12.4429C9.29184 12.4429 9.96484 13.1159 9.96484 13.9429C9.96484 14.7699 9.29184 15.4429 8.46484 15.4429ZM8.46484 13.4429C8.18884 13.4429 7.96484 13.6679 7.96484 13.9429C7.96484 14.2179 8.18884 14.4429 8.46484 14.4429C8.74084 14.4429 8.96484 14.2179 8.96484 13.9429C8.96484 13.6679 8.74084 13.4429 8.46484 13.4429Z" fill="#333333"/>
<path d="M16.4648 15.4429C15.6378 15.4429 14.9648 14.7699 14.9648 13.9429C14.9648 13.1159 15.6378 12.4429 16.4648 12.4429C17.2918 12.4429 17.9648 13.1159 17.9648 13.9429C17.9648 14.7699 17.2918 15.4429 16.4648 15.4429ZM16.4648 13.4429C16.1888 13.4429 15.9648 13.6679 15.9648 13.9429C15.9648 14.2179 16.1888 14.4429 16.4648 14.4429C16.7408 14.4429 16.9648 14.2179 16.9648 13.9429C16.9648 13.6679 16.7408 13.4429 16.4648 13.4429Z" fill="#333333"/>
<path d="M12.4655 19.4654C11.4415 19.4654 10.4165 19.0754 9.63648 18.2954C9.44148 18.1004 9.44148 17.7834 9.63648 17.5884C9.83148 17.3934 10.1485 17.3934 10.3435 17.5884C11.5135 18.7584 13.4165 18.7584 14.5865 17.5884C14.7815 17.3934 15.0985 17.3934 15.2935 17.5884C15.4885 17.7834 15.4885 18.1004 15.2935 18.2954C14.5145 19.0764 13.4895 19.4654 12.4655 19.4654Z" fill="#333333"/>
</g>
<defs>
<clipPath id="clip0">
<rect width="24" height="24" fill="white" transform="translate(0.464844 0.442871)"/>
</clipPath>
</defs>
</svg>
