<svg width="25" height="25" viewBox="0 0 25 25" fill="none" xmlns="http://www.w3.org/2000/svg">
<g clip-path="url(#clip0)">
<path d="M23.6176 4.27289C22.9561 3.1297 22.0053 2.17092 20.8682 1.50023C19.6956 0.808496 18.3524 0.442871 16.9841 0.442871C15.6158 0.442871 14.2726 0.808496 13.0998 1.50023C11.9627 2.17096 11.012 3.12975 10.3504 4.27289C10.2154 4.50628 10.2256 4.79625 10.3769 5.01946L14.0215 10.3993V22.9867C14.0215 23.7896 14.6747 24.4429 15.4777 24.4429H18.4903C19.2932 24.4429 19.9465 23.7896 19.9465 22.9867V10.3992L23.5911 5.01942C23.7424 4.79625 23.7527 4.50628 23.6176 4.27289ZM18.5403 22.9867C18.5403 23.0123 18.516 23.0366 18.4903 23.0366H15.4778C15.4521 23.0366 15.4278 23.0123 15.4278 22.9867V10.8866H16.6027C16.6043 10.8866 16.6058 10.8868 16.6074 10.8868C16.6089 10.8868 16.6104 10.8866 16.6119 10.8866H17.3561C17.3577 10.8866 17.3592 10.8868 17.3607 10.8868C17.3623 10.8868 17.3638 10.8866 17.3654 10.8866H18.5403V22.9867ZM18.8705 9.48037H18.3362L18.7808 8.14645C18.9036 7.77806 18.7045 7.37986 18.3361 7.25704C17.9677 7.13428 17.5695 7.3334 17.4467 7.70175L16.984 9.08972L16.5214 7.70175C16.3986 7.33336 16.0005 7.13423 15.632 7.25704C15.2636 7.37986 15.0645 7.77801 15.1873 8.14645L15.6319 9.48037H15.0976L11.7978 4.60964C12.9553 2.89659 14.9046 1.84912 16.9841 1.84912C19.0636 1.84912 21.0128 2.89659 22.1703 4.60959L18.8705 9.48037Z" fill="#333333"/>
<path d="M8.69995 16.2591H8.64998V8.67785C8.64998 8.28953 8.33517 7.97472 7.94686 7.97472H7.89689V1.89967C7.89689 1.20039 7.39791 0.673096 6.73627 0.673096C6.56897 0.673096 6.3998 0.706846 6.23339 0.773455L3.8662 1.72028C3.21558 1.98053 2.72494 2.70522 2.72494 3.40596V7.97472H2.67497C2.28666 7.97472 1.97184 8.28953 1.97184 8.67785V16.2591H1.92188C1.53356 16.2591 1.21875 16.5739 1.21875 16.9622V22.9872C1.21875 23.7902 1.87205 24.4434 2.67497 24.4434H7.94686C8.74983 24.4434 9.40308 23.7902 9.40308 22.9872V16.9622C9.40308 16.5739 9.08827 16.2591 8.69995 16.2591ZM4.13119 3.40596C4.13119 3.27906 4.27069 3.07305 4.38848 3.02594L6.49059 2.1851V7.97472H4.13119V3.40596ZM3.37809 9.38097H3.42806H7.19372H7.24369V16.2591H3.37809V9.38097ZM7.99683 22.9872C7.99683 23.0129 7.97255 23.0372 7.94686 23.0372H2.67497C2.64928 23.0372 2.625 23.0129 2.625 22.9872V17.6653H2.67497H7.94686H7.99683V22.9872Z" fill="#333333"/>
</g>
<defs>
<clipPath id="clip0">
<rect width="24" height="24" fill="white" transform="translate(0.464844 0.442871)"/>
</clipPath>
</defs>
</svg>
