<svg width="25" height="25" viewBox="0 0 25 25" fill="none" xmlns="http://www.w3.org/2000/svg">
<path d="M4.46484 18.4429H20.4648C21.0148 18.4429 21.4648 17.9929 21.4648 17.4429C21.4648 16.8929 21.0148 16.4429 20.4648 16.4429H4.46484C3.91484 16.4429 3.46484 16.8929 3.46484 17.4429C3.46484 17.9929 3.91484 18.4429 4.46484 18.4429ZM4.46484 13.4429H20.4648C21.0148 13.4429 21.4648 12.9929 21.4648 12.4429C21.4648 11.8929 21.0148 11.4429 20.4648 11.4429H4.46484C3.91484 11.4429 3.46484 11.8929 3.46484 12.4429C3.46484 12.9929 3.91484 13.4429 4.46484 13.4429ZM3.46484 7.44287C3.46484 7.99287 3.91484 8.44287 4.46484 8.44287H20.4648C21.0148 8.44287 21.4648 7.99287 21.4648 7.44287C21.4648 6.89287 21.0148 6.44287 20.4648 6.44287H4.46484C3.91484 6.44287 3.46484 6.89287 3.46484 7.44287Z" fill="white"/>
</svg>
