<svg width="25" height="25" viewBox="0 0 25 25" fill="none" xmlns="http://www.w3.org/2000/svg">
<g clip-path="url(#clip0)">
<path d="M13.5552 17.3517C13.8564 17.3517 14.1006 17.1075 14.1006 16.8063C14.1006 16.5051 13.8564 16.2609 13.5552 16.2609C13.254 16.2609 13.0098 16.5051 13.0098 16.8063C13.0098 17.1075 13.254 17.3517 13.5552 17.3517Z" fill="#333333"/>
<path d="M4.28372 20.6241C4.58496 20.6241 4.82916 20.3799 4.82916 20.0786C4.82916 19.7774 4.58496 19.5332 4.28372 19.5332C3.98248 19.5332 3.73828 19.7774 3.73828 20.0786C3.73828 20.3799 3.98248 20.6241 4.28372 20.6241Z" fill="#333333"/>
<path d="M22.8283 2.62488H4.28285C3.35556 2.62488 2.64648 3.33396 2.64648 4.26124V9.7158C2.64648 10.0431 2.86469 10.2612 3.19192 10.2612C3.51916 10.2612 3.73736 10.043 3.73736 9.7158V4.26128C3.73736 3.934 3.95556 3.71585 4.2828 3.71585H22.8283C23.1555 3.71585 23.3737 3.93405 23.3737 4.26128V17.3522C23.3737 17.6795 23.1555 17.8976 22.8283 17.8976H9.73736C9.41008 17.8976 9.19193 18.1158 9.19193 18.4431C9.19193 18.7703 9.41013 18.9885 9.73736 18.9885H10.8283V20.6249C10.8283 20.9522 10.6101 21.1703 10.2829 21.1703H9.73741C9.41013 21.1703 9.19197 21.3885 9.19197 21.7158C9.19197 22.043 9.41018 22.2612 9.73741 22.2612H17.3738C17.7011 22.2612 17.9192 22.043 17.9192 21.7158C17.9192 21.3885 17.701 21.1703 17.3738 21.1703H16.8283C16.5011 21.1703 16.2829 20.9521 16.2829 20.6249V18.9885H22.8283C23.7556 18.9885 24.4647 18.2794 24.4647 17.3522V4.26128C24.4647 3.334 23.7556 2.62488 22.8283 2.62488ZM11.8101 21.1704C11.8646 21.0067 11.9192 20.8431 11.9192 20.6249V18.9886H15.1919V20.6249C15.1919 20.8431 15.2464 21.0067 15.301 21.1704H11.8101Z" fill="#333333"/>
<path d="M21.7368 14.6249H9.73684C9.40956 14.6249 9.19141 14.8431 9.19141 15.1703C9.19141 15.4975 9.40961 15.7158 9.73684 15.7158H21.7368C22.0641 15.7158 22.2823 15.4975 22.2823 15.1703C22.2823 14.8431 22.0641 14.6249 21.7368 14.6249Z" fill="#333333"/>
<path d="M6.46484 11.3525H2.1012C1.17392 11.3525 0.464844 12.0617 0.464844 12.9889V20.6253C0.464844 21.5525 1.17392 22.2616 2.1012 22.2616H6.46484C7.39213 22.2616 8.1012 21.5525 8.1012 20.6253V12.9889C8.1012 12.0617 7.39213 11.3525 6.46484 11.3525ZM7.01028 20.6253C7.01028 20.9525 6.79208 21.1707 6.46484 21.1707H2.1012C1.77392 21.1707 1.55577 20.9525 1.55577 20.6253V12.9889C1.55577 12.6616 1.77397 12.4435 2.1012 12.4435H6.46484C6.79213 12.4435 7.01028 12.6617 7.01028 12.9889V20.6253Z" fill="#333333"/>
</g>
<defs>
<clipPath id="clip0">
<rect width="24" height="24" fill="white" transform="translate(0.464844 0.442871)"/>
</clipPath>
</defs>
</svg>
