<svg width="25" height="25" viewBox="0 0 25 25" fill="none" xmlns="http://www.w3.org/2000/svg">
<g clip-path="url(#clip0)">
<path d="M23.7765 9.20535C23.2973 8.72613 22.7451 8.60111 22.4794 8.54378C22.1565 8.47086 21.8179 8.45524 21.4897 8.49689C20.1614 5.41307 16.6087 3.32422 12.4674 3.32422C8.56058 3.32422 5.10692 5.42869 3.70045 8.54378C3.28891 8.45524 2.86697 8.45524 2.45548 8.549C2.18981 8.60629 1.63763 8.73131 1.1584 9.21058C1.06986 9.29912 0.314523 10.0909 0.49165 11.2213C0.663552 12.3412 1.63245 13.0393 2.46071 13.2164C2.74723 13.2789 3.03892 13.2737 3.32544 13.2111C3.35147 13.2059 3.37755 13.2007 3.39835 13.1955C3.48171 13.3362 3.74738 14.0811 3.10143 17.2899C3.0858 17.3733 3.09103 17.4618 3.11706 17.5452C3.49734 18.7641 4.11199 19.3579 5.11737 19.4726C5.13822 19.4726 5.15385 19.4778 5.17465 19.4778V21.0405C5.17465 21.3271 5.40906 21.5615 5.69558 21.5615C5.9821 21.5615 6.21651 21.3271 6.21651 21.0405V19.4778H18.7185V21.0405C18.7185 21.3271 18.9529 21.5615 19.2394 21.5615C19.5259 21.5615 19.7603 21.3271 19.7603 21.0405V19.4778C19.7812 19.4778 19.7968 19.4778 19.8176 19.4726C20.823 19.3579 21.4429 18.7641 21.8179 17.5452C21.8439 17.4618 21.8492 17.3733 21.8335 17.2899C21.1876 14.0759 21.4533 13.3309 21.5366 13.1955C21.5575 13.2007 21.5835 13.2059 21.6095 13.2111C21.8908 13.2737 22.1877 13.2789 22.469 13.2164C23.2973 13.0392 24.2662 12.3412 24.4381 11.2213C24.6152 10.0857 23.8599 9.29389 23.7765 9.20535ZM12.4674 4.36608C16.1451 4.36608 19.2966 6.15801 20.4947 8.81989C20.3176 8.91888 20.1457 9.02828 19.9842 9.14807C19.531 9.46584 19.1299 9.8617 18.8122 10.3201C18.5674 10.6796 18.3746 11.0702 18.2287 11.4818C17.8328 12.5757 17.7183 13.878 17.687 14.7844H7.24788C7.21662 13.878 7.09683 12.5757 6.70614 11.4818C6.56027 11.0702 6.36756 10.6796 6.1227 10.3201C5.80493 9.86693 5.40906 9.46584 4.95064 9.14807C4.85688 9.08033 4.75789 9.01265 4.65895 8.95014C5.90397 6.21529 8.98257 4.36608 12.4674 4.36608ZM23.4171 11.0598C23.3129 11.7318 22.667 12.1068 22.2607 12.1902C22.1096 12.2214 21.9585 12.2162 21.8127 12.1798C21.6356 12.1433 21.3907 12.0964 21.1147 12.2267C20.2448 12.6174 20.151 14.1072 20.7917 17.3577C20.4636 18.3214 20.052 18.3943 19.7395 18.4308H5.20073C4.88818 18.3943 4.47147 18.3214 4.14847 17.3577C4.78919 14.1072 4.69543 12.6174 3.82552 12.2267C3.54945 12.1017 3.30459 12.1485 3.12751 12.1798C2.98164 12.2163 2.82536 12.2214 2.67954 12.1902C2.27323 12.1017 1.62728 11.7318 1.52311 11.0598C1.42412 10.4295 1.89294 9.94502 1.89294 9.93984C2.15861 9.67418 2.48156 9.60126 2.67954 9.55956C2.9452 9.49705 3.2265 9.49705 3.49217 9.55956C3.83597 9.6377 4.04953 9.78874 4.35167 9.99713C4.70588 10.2472 5.01843 10.5545 5.26329 10.9087C5.45604 11.1953 5.60709 11.5078 5.72171 11.8308C6.14365 13.0132 6.21139 14.5134 6.21139 15.3C6.21139 15.5866 6.4458 15.821 6.73232 15.821H18.1924C18.479 15.821 18.7134 15.5866 18.7134 15.3C18.7134 14.5083 18.7811 13.008 19.2031 11.8255C19.3177 11.5026 19.4687 11.19 19.6615 10.9035C19.9115 10.5493 20.2188 10.2368 20.5731 9.9919C20.87 9.78352 21.0888 9.63247 21.4274 9.55433C21.6983 9.49705 21.9743 9.49705 22.2452 9.55433C22.4432 9.59599 22.7662 9.66895 23.0318 9.93462C23.042 9.94507 23.5109 10.4295 23.4171 11.0598Z" fill="#333333"/>
</g>
<defs>
<clipPath id="clip0">
<rect width="24" height="24" fill="white" transform="translate(0.464844 0.442871)"/>
</clipPath>
</defs>
</svg>
