<svg width="25" height="25" viewBox="0 0 25 25" fill="none" xmlns="http://www.w3.org/2000/svg">
<g clip-path="url(#clip0)">
<path d="M17.1358 18.9197C18.3261 18.9197 20.1126 18.5297 21.8601 16.6742C24.7108 13.6502 23.8206 10.5835 23.7816 10.4545L23.6571 10.0435L23.2393 9.94296C23.1996 9.93321 22.8366 9.84996 22.2688 9.84996C21.1926 9.84996 19.0971 10.1597 17.1448 12.232C14.6278 14.9042 15.1603 17.4632 15.3666 18.1457C15.0666 18.6827 14.7658 19.3015 14.5003 19.9787C14.1793 18.7825 13.7293 17.7482 13.2313 16.762L13.2478 16.72C13.3221 16.5347 15.0013 12.1315 10.5823 7.44096C7.57107 4.24446 4.35132 3.76746 2.69982 3.76746C1.84257 3.76746 1.30857 3.88971 1.25007 3.90396L0.833072 4.00371L0.707822 4.41471C0.648572 4.61121 -0.706678 9.28146 3.68382 13.9405C6.37482 16.7987 9.10782 17.398 10.9273 17.398C11.2783 17.398 11.5828 17.3747 11.8438 17.3425C12.6651 18.955 13.3251 20.5847 13.4518 22.9427H9.69357V24.4427H19.4436V22.9427H15.2683C15.4423 21.4112 16.0626 19.9765 16.6633 18.8965C16.8058 18.91 16.9626 18.9197 17.1358 18.9197ZM18.2361 13.2602C19.9071 11.488 21.6291 11.3252 22.4263 11.353C22.5066 12.1577 22.4308 13.882 20.7688 15.646C19.3873 17.1122 18.0313 17.4197 17.1358 17.4197C16.9783 17.4197 16.8403 17.41 16.7256 17.3972C16.5988 16.6825 16.5576 15.043 18.2361 13.2602ZM4.77507 12.9122C1.69932 9.64746 1.85907 6.45246 2.04732 5.29821C2.22132 5.28171 2.44182 5.26746 2.69982 5.26746C4.10907 5.26746 6.86607 5.68371 9.49107 8.46996C11.9728 11.1055 12.2241 13.5677 12.0973 14.9687C7.34532 9.27396 4.44057 6.97296 4.31607 6.87471C3.99057 6.62046 3.51882 6.67746 3.26307 7.00371C3.00882 7.32996 3.06582 7.80096 3.39132 8.05596C3.42057 8.07921 6.29532 10.363 10.9198 15.898C9.39657 15.8965 7.09632 15.376 4.77507 12.9122Z" fill="#333333"/>
</g>
<defs>
<clipPath id="clip0">
<rect width="24" height="24" fill="white" transform="translate(0.464844 0.442871)"/>
</clipPath>
</defs>
</svg>
