<svg width="25" height="25" viewBox="0 0 25 25" fill="none" xmlns="http://www.w3.org/2000/svg">
<g clip-path="url(#clip0)">
<path d="M24.0107 19.3492L18.0405 13.3788C17.7366 13.0748 17.3342 13.2006 17.406 13.1864C16.7559 13.3159 16.1601 12.9157 15.7862 12.5733L18.2457 10.1136C19.9365 10.574 21.7689 10.0993 23.0231 8.84502C24.4958 7.37226 24.8822 5.12081 23.9847 3.24266C23.7755 2.80504 23.1957 2.70604 22.8531 3.04865L20.5836 5.31815L19.7674 5.13965L19.5895 4.3236L21.8587 2.05424C22.2017 1.71126 22.1018 1.13151 21.6647 0.922586C19.7859 0.0248833 17.5345 0.411321 16.0625 1.88418C14.8083 3.13841 14.3338 4.97109 14.7942 6.66206L11.2361 10.2203L6.41406 5.39807L7.07697 4.73512C7.37758 4.43456 7.34439 3.93745 7.00689 3.67935L4.18956 1.52484C3.90958 1.31076 3.51442 1.33701 3.26523 1.5862L1.60792 3.24356C1.35873 3.49274 1.33248 3.88795 1.54656 4.16788L3.70103 6.98535C3.95898 7.32276 4.45576 7.35637 4.75675 7.05543L5.41965 6.39252L10.2417 11.2147L6.68359 14.773C4.99248 14.3126 3.16005 14.787 1.906 16.0411C0.433093 17.5133 0.0466082 19.7648 0.944264 21.6436C1.15328 22.0812 1.73312 22.1804 2.07587 21.8376L4.34514 19.5683L5.16114 19.7463L5.33969 20.5625L3.07023 22.8321C2.72734 23.1749 2.82695 23.7547 3.26425 23.9637C5.14291 24.8616 7.39422 24.4744 8.86647 23.0021C10.1207 21.7477 10.5954 19.9153 10.1351 18.2245L12.5941 15.7655C13.4362 16.6871 13.2076 17.3856 13.2076 17.3856C13.1627 17.6112 13.2326 17.8518 13.4001 18.0193L19.3703 23.9898C19.9745 24.5939 20.9575 24.5939 21.5615 23.9898L24.0107 21.5405C24.6163 20.9349 24.6164 19.9548 24.0107 19.3492ZM3.03761 3.80263L3.82431 3.01593L5.51472 4.30865L4.33028 5.49313L3.03761 3.80263ZM8.67625 18.279C9.16244 19.5693 8.84683 21.0329 7.87216 22.0077C7.07687 22.8029 5.9643 23.1548 4.88875 23.0024L6.60597 21.285C6.77537 21.1157 6.84686 20.8716 6.79567 20.6376L6.43872 19.0051C6.38003 18.7366 6.17022 18.5269 5.90167 18.4684L4.26958 18.1124C4.03576 18.0612 3.79187 18.1328 3.62256 18.3022L1.90562 20.0191C1.75309 18.9436 2.10498 17.8306 2.90031 17.0356C3.87494 16.061 5.33866 15.7455 6.62912 16.2318C6.8875 16.3292 7.17906 16.2663 7.3743 16.071L16.0923 7.35271C16.2876 7.15743 16.3505 6.86596 16.2531 6.60754C15.7667 5.31693 16.0822 3.85316 17.057 2.8784C17.8519 2.08302 18.9649 1.73127 20.0403 1.88381L18.3234 3.60088C18.1541 3.77015 18.0825 4.01399 18.1336 4.2479L18.4895 5.88004C18.5481 6.14859 18.7578 6.35845 19.0263 6.41713L20.6587 6.77413C20.8927 6.82523 21.1367 6.75379 21.3061 6.58438L23.0234 4.86712C23.1758 5.94238 22.8239 7.05538 22.0287 7.85062C21.054 8.82534 19.5905 9.14104 18.3001 8.65476C18.0417 8.5574 17.7502 8.62031 17.555 8.81554C17.4729 8.89762 9.04984 17.321 8.83698 17.5338C8.64175 17.7291 8.57884 18.0206 8.67625 18.279ZM14.792 13.5675C15.0988 13.8538 15.5227 14.1779 16.0352 14.3897L14.4108 16.0142C14.1991 15.5016 13.875 15.0775 13.5888 14.7707L14.792 13.5675ZM23.0164 20.5461L20.5672 22.9954C20.5114 23.0511 20.4206 23.0512 20.3648 22.9954L14.8916 17.5221L17.5433 14.8703L23.0164 20.3436C23.0724 20.3997 23.0725 20.49 23.0164 20.5461Z" fill="#333333"/>
</g>
<defs>
<clipPath id="clip0">
<rect width="24" height="24" fill="white" transform="translate(0.464844 0.442871)"/>
</clipPath>
</defs>
</svg>
