<svg width="19" height="13" viewBox="0 0 19 13" fill="none" xmlns="http://www.w3.org/2000/svg">
<path d="M1.46484 12.4429H17.4648C18.0148 12.4429 18.4648 11.9929 18.4648 11.4429C18.4648 10.8929 18.0148 10.4429 17.4648 10.4429H1.46484C0.914844 10.4429 0.464844 10.8929 0.464844 11.4429C0.464844 11.9929 0.914844 12.4429 1.46484 12.4429ZM1.46484 7.44287H17.4648C18.0148 7.44287 18.4648 6.99287 18.4648 6.44287C18.4648 5.89287 18.0148 5.44287 17.4648 5.44287H1.46484C0.914844 5.44287 0.464844 5.89287 0.464844 6.44287C0.464844 6.99287 0.914844 7.44287 1.46484 7.44287ZM0.464844 1.44287C0.464844 1.99287 0.914844 2.44287 1.46484 2.44287H17.4648C18.0148 2.44287 18.4648 1.99287 18.4648 1.44287C18.4648 0.892871 18.0148 0.442871 17.4648 0.442871H1.46484C0.914844 0.442871 0.464844 0.892871 0.464844 1.44287Z" fill="white"/>
</svg>
