<svg width="15" height="15" viewBox="0 0 15 15" fill="none" xmlns="http://www.w3.org/2000/svg">
<path d="M13.7655 1.15284C13.3755 0.762842 12.7455 0.762842 12.3555 1.15284L7.46555 6.03284L2.57555 1.14284C2.18555 0.752842 1.55555 0.752842 1.16555 1.14284C0.775547 1.53284 0.775547 2.16284 1.16555 2.55284L6.05555 7.44284L1.16555 12.3328C0.775547 12.7228 0.775547 13.3528 1.16555 13.7428C1.55555 14.1328 2.18555 14.1328 2.57555 13.7428L7.46555 8.85284L12.3555 13.7428C12.7455 14.1328 13.3755 14.1328 13.7655 13.7428C14.1555 13.3528 14.1555 12.7228 13.7655 12.3328L8.87555 7.44284L13.7655 2.55284C14.1455 2.17284 14.1455 1.53284 13.7655 1.15284Z" fill="white"/>
</svg>
