<svg width="19" height="19" viewBox="0 0 19 19" fill="none" xmlns="http://www.w3.org/2000/svg">
<path d="M9.46484 2.69287C10.7023 2.69287 11.7148 3.70537 11.7148 4.94287C11.7148 6.18037 10.7023 7.19287 9.46484 7.19287C8.22734 7.19287 7.21484 6.18037 7.21484 4.94287C7.21484 3.70537 8.22734 2.69287 9.46484 2.69287ZM9.46484 13.9429C12.5023 13.9429 15.9898 15.3941 16.2148 16.1929H2.71484C2.97359 15.3829 6.43859 13.9429 9.46484 13.9429ZM9.46484 0.442871C6.97859 0.442871 4.96484 2.45662 4.96484 4.94287C4.96484 7.42912 6.97859 9.44287 9.46484 9.44287C11.9511 9.44287 13.9648 7.42912 13.9648 4.94287C13.9648 2.45662 11.9511 0.442871 9.46484 0.442871ZM9.46484 11.6929C6.46109 11.6929 0.464844 13.2004 0.464844 16.1929V18.4429H18.4648V16.1929C18.4648 13.2004 12.4686 11.6929 9.46484 11.6929Z" fill="#333333"/>
</svg>
