<svg width="25" height="23" viewBox="0 0 25 23" fill="none" xmlns="http://www.w3.org/2000/svg">
<path d="M22.7719 2.84497C21.5295 1.4975 19.8248 0.755371 17.9714 0.755371C16.586 0.755371 15.3173 1.19336 14.2003 2.05707C13.6367 2.49304 13.126 3.02643 12.6758 3.64899C12.2257 3.02661 11.7148 2.49304 11.1511 2.05707C10.0343 1.19336 8.76556 0.755371 7.38019 0.755371C5.52679 0.755371 3.8219 1.4975 2.57953 2.84497C1.35199 4.1767 0.675781 5.99603 0.675781 7.96808C0.675781 9.9978 1.43219 11.8558 3.05615 13.8154C4.50891 15.5682 6.59686 17.3477 9.01477 19.4081C9.84039 20.1118 10.7762 20.9094 11.748 21.759C12.0047 21.9839 12.3341 22.1077 12.6758 22.1077C13.0173 22.1077 13.3469 21.9839 13.6032 21.7594C14.575 20.9096 15.5114 20.1116 16.3373 19.4076C18.7549 17.3475 20.8428 15.5682 22.2956 13.8152C23.9196 11.8558 24.6758 9.9978 24.6758 7.9679C24.6758 5.99603 23.9996 4.1767 22.7719 2.84497Z" fill="#EB5757"/>
</svg>
