<svg width="18" height="18" viewBox="0 0 18 18" fill="none" xmlns="http://www.w3.org/2000/svg">
<path d="M12.9655 11.4429H12.1755L11.8955 11.1729C13.0955 9.77289 13.7155 7.86289 13.3755 5.83289C12.9055 3.05289 10.5855 0.832886 7.78547 0.492886C3.55547 -0.0271136 -0.00453064 3.53289 0.515469 7.76289C0.855469 10.5629 3.07547 12.8829 5.85547 13.3529C7.88547 13.6929 9.79547 13.0729 11.1955 11.8729L11.4655 12.1529V12.9429L15.7155 17.1929C16.1255 17.6029 16.7955 17.6029 17.2055 17.1929C17.6155 16.7829 17.6155 16.1129 17.2055 15.7029L12.9655 11.4429ZM6.96547 11.4429C4.47547 11.4429 2.46547 9.43289 2.46547 6.94289C2.46547 4.45289 4.47547 2.44289 6.96547 2.44289C9.45547 2.44289 11.4655 4.45289 11.4655 6.94289C11.4655 9.43289 9.45547 11.4429 6.96547 11.4429Z" fill="white"/>
</svg>
