<svg width="17" height="16" viewBox="0 0 17 16" fill="none" xmlns="http://www.w3.org/2000/svg">
<path d="M5.13151 3.83333V0.5M11.7982 3.83333V0.5M4.29818 7.16667H12.6315M2.63151 15.5H14.2982C14.7402 15.5 15.1641 15.3244 15.4767 15.0118C15.7892 14.6993 15.9648 14.2754 15.9648 13.8333V3.83333C15.9648 3.39131 15.7892 2.96738 15.4767 2.65482C15.1641 2.34226 14.7402 2.16667 14.2982 2.16667H2.63151C2.18948 2.16667 1.76556 2.34226 1.453 2.65482C1.14044 2.96738 0.964844 3.39131 0.964844 3.83333V13.8333C0.964844 14.2754 1.14044 14.6993 1.453 15.0118C1.76556 15.3244 2.18948 15.5 2.63151 15.5Z" stroke="white" stroke-linecap="round" stroke-linejoin="round"/>
</svg>
