<svg width="21" height="20" viewBox="0 0 21 20" fill="none" xmlns="http://www.w3.org/2000/svg">
<path d="M19.4648 19L13.4648 13M15.4648 8C15.4648 8.91925 15.2838 9.82951 14.932 10.6788C14.5802 11.5281 14.0646 12.2997 13.4146 12.9497C12.7646 13.5998 11.9929 14.1154 11.1436 14.4672C10.2943 14.8189 9.3841 15 8.46484 15C7.54559 15 6.63534 14.8189 5.78606 14.4672C4.93678 14.1154 4.16511 13.5998 3.5151 12.9497C2.86509 12.2997 2.34947 11.5281 1.99769 10.6788C1.6459 9.82951 1.46484 8.91925 1.46484 8C1.46484 6.14348 2.20234 4.36301 3.5151 3.05025C4.82785 1.7375 6.60833 1 8.46484 1C10.3214 1 12.1018 1.7375 13.4146 3.05025C14.7273 4.36301 15.4648 6.14348 15.4648 8Z" stroke="#FA5948" stroke-width="2" stroke-linecap="round" stroke-linejoin="round"/>
</svg>
