<svg width="17" height="20" viewBox="0 0 17 20" fill="none" xmlns="http://www.w3.org/2000/svg">
<path d="M11.2933 7.82843C12.0434 7.07828 12.4648 6.06087 12.4648 5C12.4648 3.93913 12.0434 2.92172 11.2933 2.17157C10.5431 1.42143 9.52571 1 8.46484 1C7.40398 1 6.38656 1.42143 5.63642 2.17157C4.88627 2.92172 4.46484 3.93913 4.46484 5C4.46484 6.06087 4.88627 7.07828 5.63642 7.82843C6.38656 8.57857 7.40398 9 8.46484 9C9.52571 9 10.5431 8.57857 11.2933 7.82843Z" stroke="#FA5948" stroke-width="2" stroke-linecap="round" stroke-linejoin="round"/>
<path d="M3.5151 14.0503C4.82785 12.7375 6.60833 12 8.46484 12C10.3214 12 12.1018 12.7375 13.4146 14.0503C14.7273 15.363 15.4648 17.1435 15.4648 19H1.46484C1.46484 17.1435 2.20234 15.363 3.5151 14.0503Z" stroke="#FA5948" stroke-width="2" stroke-linecap="round" stroke-linejoin="round"/>
</svg>
