<svg width="25" height="23" viewBox="0 0 25 23" fill="none" xmlns="http://www.w3.org/2000/svg">
<path d="M12.4648 22.1077C12.1232 22.1077 11.7938 21.9839 11.537 21.759C10.5675 20.9113 9.63275 20.1146 8.80804 19.4118L8.80383 19.4081C6.38593 17.3477 4.29797 15.5682 2.84521 13.8154C1.22125 11.8558 0.464844 9.9978 0.464844 7.96808C0.464844 5.99603 1.14105 4.1767 2.36877 2.84497C3.61115 1.4975 5.31586 0.755371 7.16943 0.755371C8.55481 0.755371 9.82355 1.19336 10.9403 2.05707C11.5039 2.49304 12.0148 3.02661 12.4648 3.64899C12.9151 3.02661 13.4258 2.49304 13.9896 2.05707C15.1063 1.19336 16.3751 0.755371 17.7604 0.755371C19.6138 0.755371 21.3187 1.4975 22.5611 2.84497C23.7888 4.1767 24.4648 5.99603 24.4648 7.96808C24.4648 9.9978 23.7086 11.8558 22.0847 13.8152C20.6319 15.5682 18.5441 17.3475 16.1266 19.4078C15.3004 20.1116 14.3642 20.9096 13.3925 21.7594C13.1359 21.9839 12.8063 22.1077 12.4648 22.1077ZM7.16943 2.16125C5.7132 2.16125 4.37543 2.74243 3.40222 3.79785C2.41455 4.8692 1.87054 6.35016 1.87054 7.96808C1.87054 9.67517 2.505 11.2019 3.92755 12.9183C5.30249 14.5775 7.3476 16.3203 9.71552 18.3383L9.71991 18.3419C10.5477 19.0474 11.4861 19.8472 12.4628 20.7012C13.4454 19.8456 14.3853 19.0445 15.2147 18.3379C17.5825 16.3199 19.6274 14.5775 21.0023 12.9183C22.4247 11.2019 23.0591 9.67517 23.0591 7.96808C23.0591 6.35016 22.5151 4.8692 21.5275 3.79785C20.5544 2.74243 19.2165 2.16125 17.7604 2.16125C16.6937 2.16125 15.7142 2.50037 14.8494 3.16907C14.0787 3.76526 13.5419 4.51892 13.2271 5.04626C13.0652 5.31744 12.7803 5.47931 12.4648 5.47931C12.1494 5.47931 11.8644 5.31744 11.7026 5.04626C11.388 4.51892 10.8511 3.76526 10.0803 3.16907C9.21545 2.50037 8.23602 2.16125 7.16943 2.16125Z" fill="white"/>
</svg>
